<svg xmlns="http://www.w3.org/2000/svg" viewBox="0 0 1024 1024" role="img" aria-label="Draft Coach icon">
  <rect width="1024" height="1024" rx="224" fill="#111418"/>
  <path d="M184 250c94-64 212-96 328-96s234 32 328 96v276c0 176-128 296-328 350-200-54-328-174-328-350V250Z" fill="#1d2630"/>
  <path d="M246 296c78-47 172-70 266-70s188 23 266 70v226c0 135-94 229-266 278-172-49-266-143-266-278V296Z" fill="#202f3c"/>
  <path d="M322 366h174c122 0 204 74 204 176s-82 176-204 176H322V366Zm104 88v176h68c62 0 102-34 102-88s-40-88-102-88h-68Z" fill="#deb063"/>
  <path d="M328 318h366v78H328v-78Zm0 310h366v78H328v-78Z" fill="#5ab7ff" opacity="0.75"/>
  <path d="M512 156c118 0 236 32 328 96v274c0 176-128 296-328 350V156Z" fill="#ffffff" opacity="0.055"/>
</svg>
